<svg xmlns="http://www.w3.org/2000/svg" version="1.1" xmlns:xlink="http://www.w3.org/1999/xlink" xmlns:svgjs="http://svgjs.dev/svgjs" width="1500" height="327" viewBox="0 0 1500 327"><g transform="matrix(1,0,0,1,-1.456015037593943,-1.5814396551725167)"><svg viewBox="0 0 266 58" data-background-color="#000000" preserveAspectRatio="xMidYMid meet" height="327" width="1500" xmlns="http://www.w3.org/2000/svg" xmlns:xlink="http://www.w3.org/1999/xlink"><g id="tight-bounds" transform="matrix(1,0,0,1,0.258199999999988,0.28050000000001774)"><svg viewBox="0 0 265.4836 57.43899999999999" height="57.43899999999999" width="265.4836"><g><svg viewBox="0 0 265.4836 57.43899999999999" height="57.43899999999999" width="265.4836"><g><svg viewBox="0 0 265.4836 57.43899999999999" height="57.43899999999999" width="265.4836"><g id="textblocktransform"><svg viewBox="0 0 265.4836 57.43899999999999" height="57.43899999999999" width="265.4836" id="textblock"><g><svg viewBox="0 0 265.4836 57.43899999999999" height="57.43899999999999" width="265.4836"><g><svg><g></g><g></g></svg></g><g><svg><g><svg></svg></g><g></g></svg></g><g id="text-0"><svg viewBox="0 0 265.4836 57.43899999999999" height="57.43899999999999" width="265.4836"><g transform="matrix(1,0,0,1,0,0)"><svg width="194.4836" viewBox="2.05 -35 120.19 35.5" height="57.43899999999999" data-palette-color="url(#84a61712-9c54-4840-abd5-4e49568a9aa9)"></svg></g><g><svg xmlns="http://www.w3.org/2000/svg" xmlns:xlink="http://www.w3.org/1999/xlink" version="1.1" x="208.0446" y="0" viewBox="3.5 3.5 93 93" enable-background="new 0 0 100 100" xml:space="preserve" height="57.43899999999999" width="57.43899999999999" class="icon-dxe-0" data-fill-palette-color="accent" id="dxe-0"></svg></g></svg></g></svg></g></svg></g></svg></g></svg></g><defs></defs><mask id="b7ef92ff-284b-4656-b11b-fb68618fe92c"><g id="SvgjsG6503"><svg viewBox="0 0 265.4836 57.43899999999999" height="57.43899999999999" width="265.4836"><g><svg viewBox="0 0 265.4836 57.43899999999999" height="57.43899999999999" width="265.4836"><g><svg viewBox="0 0 265.4836 57.43899999999999" height="57.43899999999999" width="265.4836"><g id="SvgjsG6502"><svg viewBox="0 0 265.4836 57.43899999999999" height="57.43899999999999" width="265.4836" id="SvgjsSvg6501"><g><svg viewBox="0 0 265.4836 57.43899999999999" height="57.43899999999999" width="265.4836"><g><svg><g></g><g></g></svg></g><g><svg><g><svg></svg></g><g></g></svg></g><g id="SvgjsG6500"><svg viewBox="0 0 265.4836 57.43899999999999" height="57.43899999999999" width="265.4836"><g transform="matrix(1,0,0,1,0,0)"><svg width="194.4836" viewBox="2.05 -35 120.19 35.5" height="57.43899999999999" data-palette-color="url(#84a61712-9c54-4840-abd5-4e49568a9aa9)"><path d="M2.05 0L2.05-35 7.55-35 7.55-20.25 14.55-35 20.05-35 13.5-22.15 20.15 0 14.4 0 9.75-15.6 7.55-11.15 7.55 0 2.05 0ZM21.3 0L27-35 34.45-35 40.15 0 34.65 0 33.65-6.95 33.65-6.85 27.4-6.85 26.4 0 21.3 0ZM28.05-11.6L33-11.6 30.55-28.9 30.45-28.9 28.05-11.6ZM42.8 0L42.8-35 49.7-35 55.05-14.05 55.15-14.05 55.15-35 60.05-35 60.05 0 54.4 0 47.8-25.55 47.7-25.55 47.7 0 42.8 0ZM64.14 0L64.14-35 69.64-35 69.64-20.75 75.54-20.75 75.54-35 81.04-35 81.04 0 75.54 0 75.54-15.75 69.64-15.75 69.64 0 64.14 0ZM93.14 0.5Q89.14 0.5 87.04-1.78 84.94-4.05 84.94-8.3L84.94-8.3 84.94-35 90.44-35 90.44-7.9Q90.44-6.1 91.17-5.3 91.89-4.5 93.24-4.5L93.24-4.5Q94.59-4.5 95.31-5.3 96.04-6.1 96.04-7.9L96.04-7.9 96.04-35 101.34-35 101.34-8.3Q101.34-4.05 99.24-1.78 97.14 0.5 93.14 0.5L93.14 0.5ZM105.24 0L105.24-35 113.54-35Q117.79-35 119.74-33.02 121.69-31.05 121.69-26.95L121.69-26.95 121.69-25.55Q121.69-22.85 120.81-21.15 119.94-19.45 118.14-18.7L118.14-18.7 118.14-18.6Q122.24-17.2 122.24-11.3L122.24-11.3 122.24-8.3Q122.24-4.25 120.11-2.13 117.99 0 113.89 0L113.89 0 105.24 0ZM110.74-20.75L112.89-20.75Q114.54-20.75 115.36-21.6 116.19-22.45 116.19-24.45L116.19-24.45 116.19-26.4Q116.19-28.3 115.51-29.15 114.84-30 113.39-30L113.39-30 110.74-30 110.74-20.75ZM110.74-5L113.89-5Q115.34-5 116.04-5.78 116.74-6.55 116.74-8.45L116.74-8.45 116.74-11.5Q116.74-13.9 115.91-14.83 115.09-15.75 113.19-15.75L113.19-15.75 110.74-15.75 110.74-5Z" opacity="1" transform="matrix(1,0,0,1,0,0)" fill="white" class="wordmark-text-0"></path></svg></g><g><svg xmlns="http://www.w3.org/2000/svg" xmlns:xlink="http://www.w3.org/1999/xlink" version="1.1" x="208.0446" y="0" viewBox="3.5 3.5 93 93" enable-background="new 0 0 100 100" xml:space="preserve" height="57.43899999999999" width="57.43899999999999" class="icon-dxe-0" data-fill-palette-color="accent" id="SvgjsSvg6499"><path d="M83.75 71C80.774 71 78.04 72.032 75.868 73.747L66.5 64.379V35.621L75.868 26.252A12.68 12.68 0 0 0 83.75 29C90.78 29 96.5 23.28 96.5 16.25S90.78 3.5 83.75 3.5 71 9.22 71 16.25C71 19.226 72.032 21.96 73.747 24.131L64.379 33.5H51.5V23.75A1.5 1.5 0 1 0 48.5 23.75V33.5H35.621L26.252 24.131A12.67 12.67 0 0 0 29 16.25C29 9.22 23.28 3.5 16.25 3.5S3.5 9.22 3.5 16.25 9.22 29 16.25 29C19.226 29 21.96 27.967 24.131 26.252L33.5 35.621V64.379L24.131 73.747A12.67 12.67 0 0 0 16.25 71C9.22 71 3.5 76.72 3.5 83.75S9.22 96.5 16.25 96.5 29 90.78 29 83.75C29 80.774 27.967 78.04 26.252 75.868L35.621 66.5H64.379L73.747 75.868A12.68 12.68 0 0 0 71 83.75C71 90.78 76.72 96.5 83.75 96.5S96.5 90.78 96.5 83.75 90.78 71 83.75 71M83.75 6.5C89.126 6.5 93.5 10.874 93.5 16.25S89.126 26 83.75 26 74 21.626 74 16.25 78.374 6.5 83.75 6.5M16.25 26C10.874 26 6.5 21.626 6.5 16.25S10.874 6.5 16.25 6.5 26 10.874 26 16.25 21.626 26 16.25 26M16.25 93.5C10.874 93.5 6.5 89.126 6.5 83.75S10.874 74 16.25 74 26 78.374 26 83.75 21.626 93.5 16.25 93.5M63.5 63.5H36.5V36.5H63.5zM83.75 93.5C78.374 93.5 74 89.126 74 83.75S78.374 74 83.75 74 93.5 78.374 93.5 83.75 89.126 93.5 83.75 93.5M50 56.5C53.584 56.5 56.5 53.584 56.5 50S53.584 43.5 50 43.5 43.5 46.416 43.5 50 46.416 56.5 50 56.5M50 46.5C51.93 46.5 53.5 48.07 53.5 50S51.93 53.5 50 53.5 46.5 51.93 46.5 50 48.07 46.5 50 46.5" fill="black"></path></svg></g></svg></g></svg></g></svg></g></svg></g></svg></g><defs><mask></mask></defs></svg><rect width="265.4836" height="57.43899999999999" fill="black" stroke="none" visibility="hidden"></rect></g></mask><linearGradient x1="0" x2="1" y1="0.578" y2="0.595" id="84a61712-9c54-4840-abd5-4e49568a9aa9"><stop stop-color="#dede50" offset="0"></stop><stop stop-color="#559c49" offset="1"></stop></linearGradient><rect width="265.4836" height="57.43899999999999" fill="url(#84a61712-9c54-4840-abd5-4e49568a9aa9)" mask="url(#b7ef92ff-284b-4656-b11b-fb68618fe92c)" data-fill-palette-color="primary"></rect><mask id="5449955c-bb99-42fe-b354-af66ce870c85"><g id="SvgjsG6524"><svg viewBox="0 0 265.4836 57.43899999999999" height="57.43899999999999" width="265.4836"><g><svg viewBox="0 0 265.4836 57.43899999999999" height="57.43899999999999" width="265.4836"><g><svg viewBox="0 0 265.4836 57.43899999999999" height="57.43899999999999" width="265.4836"><g id="SvgjsG6523"><svg viewBox="0 0 265.4836 57.43899999999999" height="57.43899999999999" width="265.4836" id="SvgjsSvg6522"><g><svg viewBox="0 0 265.4836 57.43899999999999" height="57.43899999999999" width="265.4836"><g><svg><g></g><g></g></svg></g><g><svg><g><svg></svg></g><g></g></svg></g><g id="SvgjsG6521"><svg viewBox="0 0 265.4836 57.43899999999999" height="57.43899999999999" width="265.4836"><g transform="matrix(1,0,0,1,0,0)"><svg width="194.4836" viewBox="2.05 -35 120.19 35.5" height="57.43899999999999" data-palette-color="url(#84a61712-9c54-4840-abd5-4e49568a9aa9)"></svg></g><g><svg xmlns="http://www.w3.org/2000/svg" xmlns:xlink="http://www.w3.org/1999/xlink" version="1.1" x="208.0446" y="0" viewBox="3.5 3.5 93 93" enable-background="new 0 0 100 100" xml:space="preserve" height="57.43899999999999" width="57.43899999999999" class="icon-dxe-0" data-fill-palette-color="accent" id="SvgjsSvg6520"><path d="M83.75 71C80.774 71 78.04 72.032 75.868 73.747L66.5 64.379V35.621L75.868 26.252A12.68 12.68 0 0 0 83.75 29C90.78 29 96.5 23.28 96.5 16.25S90.78 3.5 83.75 3.5 71 9.22 71 16.25C71 19.226 72.032 21.96 73.747 24.131L64.379 33.5H51.5V23.75A1.5 1.5 0 1 0 48.5 23.75V33.5H35.621L26.252 24.131A12.67 12.67 0 0 0 29 16.25C29 9.22 23.28 3.5 16.25 3.5S3.5 9.22 3.5 16.25 9.22 29 16.25 29C19.226 29 21.96 27.967 24.131 26.252L33.5 35.621V64.379L24.131 73.747A12.67 12.67 0 0 0 16.25 71C9.22 71 3.5 76.72 3.5 83.75S9.22 96.5 16.25 96.5 29 90.78 29 83.75C29 80.774 27.967 78.04 26.252 75.868L35.621 66.5H64.379L73.747 75.868A12.68 12.68 0 0 0 71 83.75C71 90.78 76.72 96.5 83.75 96.5S96.5 90.78 96.5 83.75 90.78 71 83.75 71M83.75 6.5C89.126 6.5 93.5 10.874 93.5 16.25S89.126 26 83.75 26 74 21.626 74 16.25 78.374 6.5 83.75 6.5M16.25 26C10.874 26 6.5 21.626 6.5 16.25S10.874 6.5 16.25 6.5 26 10.874 26 16.25 21.626 26 16.25 26M16.25 93.5C10.874 93.5 6.5 89.126 6.5 83.75S10.874 74 16.25 74 26 78.374 26 83.75 21.626 93.5 16.25 93.5M63.5 63.5H36.5V36.5H63.5zM83.75 93.5C78.374 93.5 74 89.126 74 83.75S78.374 74 83.75 74 93.5 78.374 93.5 83.75 89.126 93.5 83.75 93.5M50 56.5C53.584 56.5 56.5 53.584 56.5 50S53.584 43.5 50 43.5 43.5 46.416 43.5 50 46.416 56.5 50 56.5M50 46.5C51.93 46.5 53.5 48.07 53.5 50S51.93 53.5 50 53.5 46.5 51.93 46.5 50 48.07 46.5 50 46.5" fill="white"></path></svg></g></svg></g></svg></g></svg></g></svg></g></svg></g><defs><mask></mask></defs><mask><g id="SvgjsG6519"><svg viewBox="0 0 265.4836 57.43899999999999" height="57.43899999999999" width="265.4836"><g><svg viewBox="0 0 265.4836 57.43899999999999" height="57.43899999999999" width="265.4836"><g><svg viewBox="0 0 265.4836 57.43899999999999" height="57.43899999999999" width="265.4836"><g id="SvgjsG6518"><svg viewBox="0 0 265.4836 57.43899999999999" height="57.43899999999999" width="265.4836" id="SvgjsSvg6517"><g><svg viewBox="0 0 265.4836 57.43899999999999" height="57.43899999999999" width="265.4836"><g><svg><g></g><g></g></svg></g><g><svg><g><svg></svg></g><g></g></svg></g><g id="SvgjsG6516"><svg viewBox="0 0 265.4836 57.43899999999999" height="57.43899999999999" width="265.4836"><g transform="matrix(1,0,0,1,0,0)"><svg width="194.4836" viewBox="2.05 -35 120.19 35.5" height="57.43899999999999" data-palette-color="url(#84a61712-9c54-4840-abd5-4e49568a9aa9)"><path d="M2.05 0L2.05-35 7.55-35 7.55-20.25 14.55-35 20.05-35 13.5-22.15 20.15 0 14.4 0 9.75-15.6 7.55-11.15 7.55 0 2.05 0ZM21.3 0L27-35 34.45-35 40.15 0 34.65 0 33.65-6.95 33.65-6.85 27.4-6.85 26.4 0 21.3 0ZM28.05-11.6L33-11.6 30.55-28.9 30.45-28.9 28.05-11.6ZM42.8 0L42.8-35 49.7-35 55.05-14.05 55.15-14.05 55.15-35 60.05-35 60.05 0 54.4 0 47.8-25.55 47.7-25.55 47.7 0 42.8 0ZM64.14 0L64.14-35 69.64-35 69.64-20.75 75.54-20.75 75.54-35 81.04-35 81.04 0 75.54 0 75.54-15.75 69.64-15.75 69.64 0 64.14 0ZM93.14 0.5Q89.14 0.5 87.04-1.78 84.94-4.05 84.94-8.3L84.94-8.3 84.94-35 90.44-35 90.44-7.9Q90.44-6.1 91.17-5.3 91.89-4.5 93.24-4.5L93.24-4.5Q94.59-4.5 95.31-5.3 96.04-6.1 96.04-7.9L96.04-7.9 96.04-35 101.34-35 101.34-8.3Q101.34-4.05 99.24-1.78 97.14 0.5 93.14 0.5L93.14 0.5ZM105.24 0L105.24-35 113.54-35Q117.79-35 119.74-33.02 121.69-31.05 121.69-26.95L121.69-26.95 121.69-25.55Q121.69-22.85 120.81-21.15 119.94-19.45 118.14-18.7L118.14-18.7 118.14-18.6Q122.24-17.2 122.24-11.3L122.24-11.3 122.24-8.3Q122.24-4.25 120.11-2.13 117.99 0 113.89 0L113.89 0 105.24 0ZM110.74-20.75L112.89-20.75Q114.54-20.75 115.36-21.6 116.19-22.45 116.19-24.45L116.19-24.45 116.19-26.4Q116.19-28.3 115.51-29.15 114.84-30 113.39-30L113.39-30 110.74-30 110.74-20.75ZM110.74-5L113.89-5Q115.34-5 116.04-5.78 116.74-6.55 116.74-8.45L116.74-8.45 116.74-11.5Q116.74-13.9 115.91-14.83 115.09-15.75 113.19-15.75L113.19-15.75 110.74-15.75 110.74-5Z" opacity="1" transform="matrix(1,0,0,1,0,0)" fill="black" class="wordmark-text-0"></path></svg></g><g><svg xmlns="http://www.w3.org/2000/svg" xmlns:xlink="http://www.w3.org/1999/xlink" version="1.1" x="208.0446" y="0" viewBox="3.5 3.5 93 93" enable-background="new 0 0 100 100" xml:space="preserve" height="57.43899999999999" width="57.43899999999999" class="icon-dxe-0" data-fill-palette-color="accent" id="SvgjsSvg6515"><path d="M83.75 71C80.774 71 78.04 72.032 75.868 73.747L66.5 64.379V35.621L75.868 26.252A12.68 12.68 0 0 0 83.75 29C90.78 29 96.5 23.28 96.5 16.25S90.78 3.5 83.75 3.5 71 9.22 71 16.25C71 19.226 72.032 21.96 73.747 24.131L64.379 33.5H51.5V23.75A1.5 1.5 0 1 0 48.5 23.75V33.5H35.621L26.252 24.131A12.67 12.67 0 0 0 29 16.25C29 9.22 23.28 3.5 16.25 3.5S3.5 9.22 3.5 16.25 9.22 29 16.25 29C19.226 29 21.96 27.967 24.131 26.252L33.5 35.621V64.379L24.131 73.747A12.67 12.67 0 0 0 16.25 71C9.22 71 3.5 76.72 3.5 83.75S9.22 96.5 16.25 96.5 29 90.78 29 83.75C29 80.774 27.967 78.04 26.252 75.868L35.621 66.5H64.379L73.747 75.868A12.68 12.68 0 0 0 71 83.75C71 90.78 76.72 96.5 83.75 96.5S96.5 90.78 96.5 83.75 90.78 71 83.75 71M83.75 6.5C89.126 6.5 93.5 10.874 93.5 16.25S89.126 26 83.75 26 74 21.626 74 16.25 78.374 6.5 83.75 6.5M16.25 26C10.874 26 6.5 21.626 6.5 16.25S10.874 6.5 16.25 6.5 26 10.874 26 16.25 21.626 26 16.25 26M16.25 93.5C10.874 93.5 6.5 89.126 6.5 83.75S10.874 74 16.25 74 26 78.374 26 83.75 21.626 93.5 16.25 93.5M63.5 63.5H36.5V36.5H63.5zM83.75 93.5C78.374 93.5 74 89.126 74 83.75S78.374 74 83.75 74 93.5 78.374 93.5 83.75 89.126 93.5 83.75 93.5M50 56.5C53.584 56.5 56.5 53.584 56.5 50S53.584 43.5 50 43.5 43.5 46.416 43.5 50 46.416 56.5 50 56.5M50 46.5C51.93 46.5 53.5 48.07 53.5 50S51.93 53.5 50 53.5 46.5 51.93 46.5 50 48.07 46.5 50 46.5" fill="black"></path></svg></g></svg></g></svg></g></svg></g></svg></g></svg></g><defs><mask></mask></defs></svg><rect width="265.4836" height="57.43899999999999" fill="black" stroke="none" visibility="hidden"></rect></g></mask></svg><rect width="265.4836" height="57.43899999999999" fill="black" stroke="none" visibility="hidden"></rect></g></mask><linearGradient x1="0" x2="1" y1="0.578" y2="0.595" id="8fd763de-a75c-4b12-af24-b652f2ee700c"><stop stop-color="#dede50" offset="0"></stop><stop stop-color="#559c49" offset="1"></stop></linearGradient><rect width="265.4836" height="57.43899999999999" fill="url(#8fd763de-a75c-4b12-af24-b652f2ee700c)" mask="url(#5449955c-bb99-42fe-b354-af66ce870c85)" data-fill-palette-color="accent"></rect></svg><rect width="265.4836" height="57.43899999999999" fill="none" stroke="none" visibility="hidden"></rect></g></svg></g></svg>